<mxfile host="app.diagrams.net" modified="2022-05-06T13:37:45.778Z" agent="5.0 (Windows NT 10.0; Win64; x64) AppleWebKit/537.36 (KHTML, like Gecko) Chrome/100.0.4896.127 Safari/537.36" etag="E0Ru8iNXHq7ehnmFLAO2" version="17.5.1" type="github">
  <diagram id="6a731a19-8d31-9384-78a2-239565b7b9f0" name="Page-1">
    <mxGraphModel dx="3317" dy="1254" grid="1" gridSize="10" guides="1" tooltips="1" connect="1" arrows="1" fold="1" page="1" pageScale="1" pageWidth="1169" pageHeight="827" background="none" math="0" shadow="0">
      <root>
        <mxCell id="0" />
        <mxCell id="1" parent="0" />
        <mxCell id="1350" value="CARDERNO DE SENSIBILIZAÇÃO" style="ellipse;whiteSpace=wrap;html=1;shadow=0;fontFamily=Helvetica;fontSize=20;fontColor=#FFFFFF;align=center;strokeWidth=3;fillColor=#1699D3;strokeColor=none;" parent="1" vertex="1">
          <mxGeometry x="470" y="241.5" width="193.5" height="188.5" as="geometry" />
        </mxCell>
        <mxCell id="1351" value="SESSÃO&amp;nbsp;&lt;br&gt;GENERATIVA" style="ellipse;whiteSpace=wrap;html=1;shadow=0;fontFamily=Helvetica;fontSize=20;fontColor=#FFFFFF;align=center;strokeWidth=3;fillColor=#F08705;strokeColor=none;gradientColor=none;" parent="1" vertex="1">
          <mxGeometry x="1842" y="290" width="146.5" height="128.5" as="geometry" />
        </mxCell>
        <mxCell id="1354" value="Sombra" style="ellipse;whiteSpace=wrap;html=1;shadow=0;fontFamily=Helvetica;fontSize=20;align=center;strokeWidth=3;fillColor=#FFE100;strokeColor=#B09500;fontColor=#000000;" parent="1" vertex="1">
          <mxGeometry x="1930" y="854.5" width="120" height="120" as="geometry" />
        </mxCell>
        <mxCell id="1356" value="ENTREVISTA" style="ellipse;whiteSpace=wrap;html=1;shadow=0;fontFamily=Helvetica;fontSize=20;fontColor=#FFFFFF;align=center;strokeWidth=3;fillColor=#E85642;strokeColor=none;" parent="1" vertex="1">
          <mxGeometry x="486.5" y="1077" width="138.5" height="120" as="geometry" />
        </mxCell>
        <mxCell id="1358" value="REGISTRO DO COMPORTAMENTO DO U-F AO OBSERVAR AS IMGS" style="rounded=1;fillColor=#64BBE2;strokeColor=none;strokeWidth=3;shadow=0;html=1;fontColor=#FFFFFF;" parent="1" vertex="1">
          <mxGeometry x="280" y="506.5" width="388.5" height="40" as="geometry" />
        </mxCell>
        <mxCell id="1359" style="endArrow=none;strokeWidth=6;strokeColor=#1699D3;html=1;" parent="1" source="1515" target="1350" edge="1">
          <mxGeometry relative="1" as="geometry" />
        </mxCell>
        <mxCell id="1360" style="endArrow=none;strokeWidth=6;strokeColor=#f08705;html=1;" parent="1" source="1515" target="1351" edge="1">
          <mxGeometry relative="1" as="geometry" />
        </mxCell>
        <mxCell id="1363" style="endArrow=none;strokeWidth=6;strokeColor=#736CA8;html=1;" parent="1" source="1515" target="1516" edge="1">
          <mxGeometry relative="1" as="geometry" />
        </mxCell>
        <mxCell id="1364" style="endArrow=none;strokeWidth=6;strokeColor=#B09500;html=1;fillColor=#e3c800;" parent="1" source="1515" target="1354" edge="1">
          <mxGeometry relative="1" as="geometry" />
        </mxCell>
        <mxCell id="1366" value="" style="edgeStyle=none;endArrow=none;strokeWidth=6;strokeColor=#E85642;html=1;" parent="1" source="1515" target="1356" edge="1">
          <mxGeometry x="181" y="226.5" width="100" height="100" as="geometry">
            <mxPoint x="181" y="326.5" as="sourcePoint" />
            <mxPoint x="281" y="226.5" as="targetPoint" />
          </mxGeometry>
        </mxCell>
        <mxCell id="1368" value="FOTOS, RECORTES IMGS" style="rounded=1;fillColor=#64BBE2;strokeColor=none;strokeWidth=3;shadow=0;html=1;fontColor=#FFFFFF;" parent="1" vertex="1">
          <mxGeometry x="220" y="410" width="228.5" height="40" as="geometry" />
        </mxCell>
        <mxCell id="1369" value="UTILIZADO PARA OUTRAS ATVDDS" style="rounded=1;fillColor=#64BBE2;strokeColor=none;strokeWidth=3;shadow=0;html=1;fontColor=#FFFFFF;" parent="1" vertex="1">
          <mxGeometry x="150" y="250" width="268.5" height="40" as="geometry" />
        </mxCell>
        <mxCell id="1370" value="TUDO A INVESTIGAR DO U-F" style="rounded=1;fillColor=#64BBE2;strokeColor=none;strokeWidth=3;shadow=0;html=1;fontColor=#FFFFFF;" parent="1" vertex="1">
          <mxGeometry x="324" y="140" width="238.5" height="40" as="geometry" />
        </mxCell>
        <mxCell id="1371" value="octidiano interferindo nos sonhos, propositos e desejos" style="rounded=1;fillColor=#64BBE2;strokeColor=none;strokeWidth=3;shadow=0;html=1;fontColor=#FFFFFF;rotation=6;arcSize=41;" parent="1" vertex="1">
          <mxGeometry x="585" y="70" width="361.5" height="33.5" as="geometry" />
        </mxCell>
        <mxCell id="1372" value="INFOS E DIA A DIA DO P-ALVO" style="rounded=1;fillColor=#64BBE2;strokeColor=none;strokeWidth=3;shadow=0;html=1;fontColor=#FFFFFF;" parent="1" vertex="1">
          <mxGeometry x="810" y="248.5" width="200" height="36.5" as="geometry" />
        </mxCell>
        <mxCell id="1379" value="" style="edgeStyle=none;endArrow=none;strokeWidth=3;strokeColor=#64BBE2;html=1;" parent="1" source="1350" target="1358" edge="1">
          <mxGeometry x="-221.5" y="56.5" width="100" height="100" as="geometry">
            <mxPoint x="-221.5" y="156.5" as="sourcePoint" />
            <mxPoint x="-121.5" y="56.5" as="targetPoint" />
          </mxGeometry>
        </mxCell>
        <mxCell id="1380" value="" style="edgeStyle=none;endArrow=none;strokeWidth=3;strokeColor=#64BBE2;html=1;" parent="1" source="1350" target="1368" edge="1">
          <mxGeometry x="-221.5" y="56.5" width="100" height="100" as="geometry">
            <mxPoint x="-221.5" y="156.5" as="sourcePoint" />
            <mxPoint x="-121.5" y="56.5" as="targetPoint" />
          </mxGeometry>
        </mxCell>
        <mxCell id="1381" value="" style="edgeStyle=none;endArrow=none;strokeWidth=3;strokeColor=#64BBE2;html=1;" parent="1" source="1350" target="1369" edge="1">
          <mxGeometry x="-221.5" y="56.5" width="100" height="100" as="geometry">
            <mxPoint x="-221.5" y="156.5" as="sourcePoint" />
            <mxPoint x="-121.5" y="56.5" as="targetPoint" />
          </mxGeometry>
        </mxCell>
        <mxCell id="1382" value="" style="edgeStyle=none;endArrow=none;strokeWidth=3;strokeColor=#64BBE2;html=1;" parent="1" source="1350" target="1370" edge="1">
          <mxGeometry x="-221.5" y="56.5" width="100" height="100" as="geometry">
            <mxPoint x="-221.5" y="156.5" as="sourcePoint" />
            <mxPoint x="-121.5" y="56.5" as="targetPoint" />
          </mxGeometry>
        </mxCell>
        <mxCell id="1383" value="" style="edgeStyle=none;endArrow=none;strokeWidth=3;strokeColor=#64BBE2;html=1;" parent="1" source="1350" target="1371" edge="1">
          <mxGeometry x="-221.5" y="56.5" width="100" height="100" as="geometry">
            <mxPoint x="-221.5" y="156.5" as="sourcePoint" />
            <mxPoint x="-121.5" y="56.5" as="targetPoint" />
          </mxGeometry>
        </mxCell>
        <mxCell id="1384" value="" style="edgeStyle=none;endArrow=none;strokeWidth=3;strokeColor=#64BBE2;html=1;" parent="1" source="1350" target="1372" edge="1">
          <mxGeometry x="-221.5" y="56.5" width="100" height="100" as="geometry">
            <mxPoint x="-221.5" y="156.5" as="sourcePoint" />
            <mxPoint x="-121.5" y="56.5" as="targetPoint" />
          </mxGeometry>
        </mxCell>
        <mxCell id="1392" value="ATVDDS PRESENCIAIS" style="rounded=1;fillColor=#f5af58;strokeColor=none;strokeWidth=3;shadow=0;html=1;fontColor=#FFFFFF;" parent="1" vertex="1">
          <mxGeometry x="1600" y="208.5" width="183.5" height="40" as="geometry" />
        </mxCell>
        <mxCell id="1393" value="XP OBSERVADA E ANOTADA" style="rounded=1;fillColor=#f5af58;strokeColor=none;strokeWidth=3;shadow=0;html=1;fontColor=#FFFFFF;" parent="1" vertex="1">
          <mxGeometry x="1825.25" y="160" width="206.5" height="40" as="geometry" />
        </mxCell>
        <mxCell id="1394" value="DIA DIA DO U=F DETALHADO" style="rounded=1;fillColor=#f5af58;strokeColor=none;strokeWidth=3;shadow=0;html=1;fontColor=#FFFFFF;" parent="1" vertex="1">
          <mxGeometry x="2036" y="268.5" width="191.5" height="40" as="geometry" />
        </mxCell>
        <mxCell id="1395" value="EMOÇOES E FEELS&amp;nbsp; TRAZ INFOS DE &lt;br&gt;UMA VIDA COM A SOLUÇÃO" style="rounded=1;fillColor=#f5af58;strokeColor=none;strokeWidth=3;shadow=0;html=1;fontColor=#FFFFFF;" parent="1" vertex="1">
          <mxGeometry x="1509.75" y="360" width="254" height="40" as="geometry" />
        </mxCell>
        <mxCell id="1404" value="" style="edgeStyle=none;endArrow=none;strokeWidth=3;strokeColor=#F5AF58;html=1;" parent="1" source="1351" target="1392" edge="1">
          <mxGeometry x="703.5" y="100" width="100" height="100" as="geometry">
            <mxPoint x="703.5" y="200" as="sourcePoint" />
            <mxPoint x="803.5" y="100" as="targetPoint" />
          </mxGeometry>
        </mxCell>
        <mxCell id="1405" value="" style="edgeStyle=none;endArrow=none;strokeWidth=3;strokeColor=#F5AF58;html=1;" parent="1" source="1351" target="1393" edge="1">
          <mxGeometry x="703.5" y="100" width="100" height="100" as="geometry">
            <mxPoint x="703.5" y="200" as="sourcePoint" />
            <mxPoint x="803.5" y="100" as="targetPoint" />
          </mxGeometry>
        </mxCell>
        <mxCell id="1406" value="" style="edgeStyle=none;endArrow=none;strokeWidth=3;strokeColor=#F5AF58;html=1;" parent="1" source="1351" target="1394" edge="1">
          <mxGeometry x="703.5" y="100" width="100" height="100" as="geometry">
            <mxPoint x="703.5" y="200" as="sourcePoint" />
            <mxPoint x="803.5" y="100" as="targetPoint" />
          </mxGeometry>
        </mxCell>
        <mxCell id="1407" value="" style="edgeStyle=none;endArrow=none;strokeWidth=3;strokeColor=#F5AF58;html=1;" parent="1" source="1351" edge="1">
          <mxGeometry x="703.5" y="100" width="100" height="100" as="geometry">
            <mxPoint x="703.5" y="200" as="sourcePoint" />
            <mxPoint x="1767.9689265536726" y="378.5" as="targetPoint" />
          </mxGeometry>
        </mxCell>
        <mxCell id="1457" value="FOLLOWING THE USER" style="rounded=1;fillColor=#e3c800;strokeColor=#B09500;strokeWidth=3;shadow=0;html=1;fontColor=#000000;" parent="1" vertex="1">
          <mxGeometry x="2030" y="750" width="165" height="40" as="geometry" />
        </mxCell>
        <mxCell id="1459" value="SEM INTEFERIR" style="rounded=1;fillColor=#e3c800;strokeColor=#B09500;strokeWidth=3;shadow=0;html=1;fontColor=#000000;" parent="1" vertex="1">
          <mxGeometry x="2160" y="870" width="120" height="40" as="geometry" />
        </mxCell>
        <mxCell id="1460" value="OBS DE COMPORTAMNETOS" style="rounded=1;fillColor=#e3c800;strokeColor=#B09500;strokeWidth=3;shadow=0;html=1;fontColor=#000000;" parent="1" vertex="1">
          <mxGeometry x="2040" y="1010" width="200" height="40" as="geometry" />
        </mxCell>
        <mxCell id="1461" value="DETALHAMENTO&amp;nbsp;" style="rounded=1;fillColor=#e3c800;strokeColor=#B09500;strokeWidth=3;shadow=0;html=1;fontColor=#000000;" parent="1" vertex="1">
          <mxGeometry x="1800" y="1013.5" width="120" height="40" as="geometry" />
        </mxCell>
        <mxCell id="1463" value="" style="edgeStyle=none;endArrow=none;strokeWidth=3;strokeColor=#B09500;html=1;fillColor=#e3c800;entryX=0.25;entryY=0;entryDx=0;entryDy=0;" parent="1" source="1354" target="1460" edge="1">
          <mxGeometry x="470" y="-420.5" width="100" height="100" as="geometry">
            <mxPoint x="470" y="-320.5" as="sourcePoint" />
            <mxPoint x="2120" y="902.5263157894738" as="targetPoint" />
          </mxGeometry>
        </mxCell>
        <mxCell id="1464" value="" style="edgeStyle=none;endArrow=none;strokeWidth=3;strokeColor=#B09500;html=1;fillColor=#e3c800;" parent="1" source="1354" target="1461" edge="1">
          <mxGeometry x="470" y="-420.5" width="100" height="100" as="geometry">
            <mxPoint x="470" y="-320.5" as="sourcePoint" />
            <mxPoint x="570" y="-420.5" as="targetPoint" />
          </mxGeometry>
        </mxCell>
        <mxCell id="1467" value="" style="edgeStyle=none;endArrow=none;strokeWidth=3;strokeColor=#B09500;html=1;fillColor=#e3c800;" parent="1" source="1354" target="1457" edge="1">
          <mxGeometry x="470" y="-420.5" width="100" height="100" as="geometry">
            <mxPoint x="470" y="-320.5" as="sourcePoint" />
            <mxPoint x="570" y="-420.5" as="targetPoint" />
          </mxGeometry>
        </mxCell>
        <mxCell id="1490" value="INFORMÇAÕ DO PUBLICO-ALVO" style="rounded=1;fillColor=#f08e81;strokeColor=none;strokeWidth=3;shadow=0;html=1;fontColor=#FFFFFF;" parent="1" vertex="1">
          <mxGeometry x="625" y="875.5" width="206.5" height="40" as="geometry" />
        </mxCell>
        <mxCell id="1491" value="EXPERIENCIAS E VIVENCIA" style="rounded=1;fillColor=#f08e81;strokeColor=none;strokeWidth=3;shadow=0;html=1;fontColor=#FFFFFF;" parent="1" vertex="1">
          <mxGeometry x="386.5" y="952" width="168.5" height="61.5" as="geometry" />
        </mxCell>
        <mxCell id="1492" value="MOTIVOS DAS RESPOSTAS" style="rounded=1;fillColor=#f08e81;strokeColor=none;strokeWidth=3;shadow=0;html=1;fontColor=#FFFFFF;" parent="1" vertex="1">
          <mxGeometry x="106.5" y="935.5" width="218.5" height="50" as="geometry" />
        </mxCell>
        <mxCell id="1493" value="EM LUGARES NEUTROS COMO RUAS&amp;nbsp;" style="rounded=1;fillColor=#f08e81;strokeColor=none;strokeWidth=3;shadow=0;html=1;fontColor=#FFFFFF;" parent="1" vertex="1">
          <mxGeometry x="164.25" y="1120.5" width="308.5" height="36.5" as="geometry" />
        </mxCell>
        <mxCell id="1494" value="Horários de saída, entrada e almoço." style="rounded=1;fillColor=#A8645A;strokeColor=none;strokeWidth=3;shadow=0;html=1;fontColor=#FFFFFF;" parent="1" vertex="1">
          <mxGeometry x="-30" y="1237" width="258.5" height="41.5" as="geometry" />
        </mxCell>
        <mxCell id="1495" value="PERGUNTAS E RESPOSTAS" style="rounded=1;fillColor=#f08e81;strokeColor=none;strokeWidth=3;shadow=0;html=1;fontColor=#FFFFFF;" parent="1" vertex="1">
          <mxGeometry x="316.5" y="1252" width="253.5" height="46.5" as="geometry" />
        </mxCell>
        <mxCell id="1496" value="EXPRESSÃO E COMPORTAMENTO ANALISADOS" style="rounded=1;fillColor=#f08e81;strokeColor=none;strokeWidth=3;shadow=0;html=1;fontColor=#FFFFFF;" parent="1" vertex="1">
          <mxGeometry x="510" y="1318" width="318.5" height="39" as="geometry" />
        </mxCell>
        <mxCell id="1497" value="ESTEJA RELACIONADO COM A PROPOSTA" style="rounded=1;fillColor=#C7766B;strokeColor=none;strokeWidth=3;shadow=0;html=1;fontColor=#FFFFFF;" parent="1" vertex="1">
          <mxGeometry x="-100" y="1019.5" width="308.5" height="40" as="geometry" />
        </mxCell>
        <mxCell id="1503" value="" style="edgeStyle=none;endArrow=none;strokeWidth=3;strokeColor=#F08E81;html=1;" parent="1" source="1356" edge="1">
          <mxGeometry x="135" y="-43" width="100" height="100" as="geometry">
            <mxPoint x="135" y="57" as="sourcePoint" />
            <mxPoint x="649.7613871635613" y="915.5" as="targetPoint" />
          </mxGeometry>
        </mxCell>
        <mxCell id="1504" value="" style="edgeStyle=none;endArrow=none;strokeWidth=3;strokeColor=#F08E81;html=1;" parent="1" source="1356" target="1491" edge="1">
          <mxGeometry x="135" y="-43" width="100" height="100" as="geometry">
            <mxPoint x="135" y="57" as="sourcePoint" />
            <mxPoint x="235" y="-43" as="targetPoint" />
          </mxGeometry>
        </mxCell>
        <mxCell id="1505" value="" style="edgeStyle=none;endArrow=none;strokeWidth=3;strokeColor=#F08E81;html=1;" parent="1" source="1356" target="1492" edge="1">
          <mxGeometry x="135" y="-43" width="100" height="100" as="geometry">
            <mxPoint x="135" y="57" as="sourcePoint" />
            <mxPoint x="235" y="-43" as="targetPoint" />
          </mxGeometry>
        </mxCell>
        <mxCell id="1506" value="" style="edgeStyle=none;endArrow=none;strokeWidth=3;strokeColor=#F08E81;html=1;" parent="1" source="1356" target="1493" edge="1">
          <mxGeometry x="135" y="-43" width="100" height="100" as="geometry">
            <mxPoint x="135" y="57" as="sourcePoint" />
            <mxPoint x="235" y="-43" as="targetPoint" />
          </mxGeometry>
        </mxCell>
        <mxCell id="1507" value="" style="edgeStyle=none;endArrow=none;strokeWidth=3;strokeColor=#F08E81;html=1;" parent="1" source="1493" target="1494" edge="1">
          <mxGeometry x="135" y="-43" width="100" height="100" as="geometry">
            <mxPoint x="135" y="57" as="sourcePoint" />
            <mxPoint x="235" y="-43" as="targetPoint" />
          </mxGeometry>
        </mxCell>
        <mxCell id="1508" value="" style="edgeStyle=none;endArrow=none;strokeWidth=3;strokeColor=#F08E81;html=1;" parent="1" source="1356" target="1495" edge="1">
          <mxGeometry x="135" y="-43" width="100" height="100" as="geometry">
            <mxPoint x="135" y="57" as="sourcePoint" />
            <mxPoint x="235" y="-43" as="targetPoint" />
          </mxGeometry>
        </mxCell>
        <mxCell id="1509" value="" style="edgeStyle=none;endArrow=none;strokeWidth=3;strokeColor=#F08E81;html=1;" parent="1" source="1356" edge="1">
          <mxGeometry x="135" y="-43" width="100" height="100" as="geometry">
            <mxPoint x="135" y="57" as="sourcePoint" />
            <mxPoint x="708.5392768079801" y="1318" as="targetPoint" />
          </mxGeometry>
        </mxCell>
        <mxCell id="1510" value="" style="edgeStyle=none;endArrow=none;strokeWidth=3;strokeColor=#F08E81;html=1;exitX=0.25;exitY=0;exitDx=0;exitDy=0;" parent="1" source="1493" target="1497" edge="1">
          <mxGeometry x="135" y="-43" width="100" height="100" as="geometry">
            <mxPoint x="135" y="57" as="sourcePoint" />
            <mxPoint x="235" y="-43" as="targetPoint" />
          </mxGeometry>
        </mxCell>
        <mxCell id="1515" value="ELICITAÇÃO DT&lt;br&gt;IMENSÃO PROFUNDIDADE" style="ellipse;whiteSpace=wrap;html=1;shadow=0;fontFamily=Helvetica;fontSize=30;fontColor=#2F5B7C;align=center;strokeColor=#2F5B7C;strokeWidth=6;fillColor=#FFFFFF;fontStyle=1;gradientColor=none;" parent="1" vertex="1">
          <mxGeometry x="961" y="676.5" width="289" height="293.5" as="geometry" />
        </mxCell>
        <mxCell id="1516" value="UM DIA&lt;br&gt;NA VIDA" style="ellipse;whiteSpace=wrap;html=1;shadow=0;fontFamily=Helvetica;fontSize=20;fontColor=#FFFFFF;align=center;strokeWidth=3;fillColor=#736ca8;strokeColor=none;" parent="1" vertex="1">
          <mxGeometry x="1360.75" y="1288.5" width="120" height="120" as="geometry" />
        </mxCell>
        <mxCell id="1519" value="SIMULAÇÃO DE O DIA DO USER" style="rounded=1;fillColor=#a29dc5;strokeColor=none;strokeWidth=3;shadow=0;html=1;fontColor=#FFFFFF;" parent="1" vertex="1">
          <mxGeometry x="1550.75" y="1130" width="214" height="40" as="geometry" />
        </mxCell>
        <mxCell id="1520" value="EQUIPE SE PASSANDO POR USER" style="rounded=1;fillColor=#a29dc5;strokeColor=none;strokeWidth=3;shadow=0;html=1;fontColor=#FFFFFF;" parent="1" vertex="1">
          <mxGeometry x="1055.38" y="1420" width="250.25" height="40" as="geometry" />
        </mxCell>
        <mxCell id="1521" value="PRE BASE NO CARDENO E ENTREVISTAS" style="rounded=1;fillColor=#a29dc5;strokeColor=none;strokeWidth=3;shadow=0;html=1;fontColor=#FFFFFF;" parent="1" vertex="1">
          <mxGeometry x="1534.75" y="1440" width="265.25" height="40" as="geometry" />
        </mxCell>
        <mxCell id="1523" value="OBS DO USER UTILIZANDO O APP" style="rounded=1;fillColor=#a29dc5;strokeColor=none;strokeWidth=3;shadow=0;html=1;fontColor=#FFFFFF;" parent="1" vertex="1">
          <mxGeometry x="1064.75" y="1190" width="271.5" height="40" as="geometry" />
        </mxCell>
        <mxCell id="1531" value="" style="edgeStyle=none;endArrow=none;strokeWidth=3;strokeColor=#A29DC5;html=1;" parent="1" source="1516" target="1519" edge="1">
          <mxGeometry x="-446.75" y="278" width="100" height="100" as="geometry">
            <mxPoint x="-446.75" y="378" as="sourcePoint" />
            <mxPoint x="-346.75" y="278" as="targetPoint" />
          </mxGeometry>
        </mxCell>
        <mxCell id="1532" value="" style="edgeStyle=none;endArrow=none;strokeWidth=3;strokeColor=#A29DC5;html=1;exitX=1;exitY=0.25;exitDx=0;exitDy=0;entryX=0;entryY=1;entryDx=0;entryDy=0;" parent="1" source="1520" target="1516" edge="1">
          <mxGeometry x="-446.75" y="278" width="100" height="100" as="geometry">
            <mxPoint x="1324.75" y="1450" as="sourcePoint" />
            <mxPoint x="1474.75" y="1330" as="targetPoint" />
            <Array as="points">
              <mxPoint x="1304.75" y="1420" />
            </Array>
          </mxGeometry>
        </mxCell>
        <mxCell id="1533" value="" style="edgeStyle=none;endArrow=none;strokeWidth=3;strokeColor=#A29DC5;html=1;entryX=0;entryY=0.5;entryDx=0;entryDy=0;" parent="1" source="1516" target="1521" edge="1">
          <mxGeometry x="-446.75" y="278" width="100" height="100" as="geometry">
            <mxPoint x="-446.75" y="378" as="sourcePoint" />
            <mxPoint x="1590.75" y="1329.652173913043" as="targetPoint" />
          </mxGeometry>
        </mxCell>
        <mxCell id="1535" value="" style="edgeStyle=none;endArrow=none;strokeWidth=3;strokeColor=#A29DC5;html=1;" parent="1" source="1516" target="1523" edge="1">
          <mxGeometry x="-446.75" y="278" width="100" height="100" as="geometry">
            <mxPoint x="-446.75" y="378" as="sourcePoint" />
            <mxPoint x="-346.75" y="278" as="targetPoint" />
          </mxGeometry>
        </mxCell>
        <mxCell id="1541" value="" style="edgeStyle=none;endArrow=none;strokeWidth=3;strokeColor=#B09500;html=1;fillColor=#e3c800;" parent="1" source="1354" target="1459" edge="1">
          <mxGeometry x="-955" y="-725.5" width="100" height="100" as="geometry">
            <mxPoint x="-955" y="-625.5" as="sourcePoint" />
            <mxPoint x="-855" y="-725.5" as="targetPoint" />
          </mxGeometry>
        </mxCell>
        <mxCell id="1542" style="edgeStyle=none;rounded=0;html=1;exitX=0.5;exitY=1;endArrow=none;endFill=0;jettySize=auto;orthogonalLoop=1;strokeColor=#736CA8;strokeWidth=2;fillColor=#64bbe2;fontSize=20;fontColor=#23445D;" parent="1" edge="1">
          <mxGeometry relative="1" as="geometry">
            <mxPoint x="1188.25" y="1353" as="sourcePoint" />
            <mxPoint x="1188.25" y="1353" as="targetPoint" />
          </mxGeometry>
        </mxCell>
        <mxCell id="Jskb0aZUGb5_hOKti7_C-1566" value="BASE CADERNO DE SEN P PROCURA DE REQUISITOS." style="rounded=1;fillColor=#e3c800;strokeColor=#B09500;strokeWidth=3;shadow=0;html=1;fontColor=#000000;" vertex="1" parent="1">
          <mxGeometry x="1600" y="740" width="365" height="40" as="geometry" />
        </mxCell>
        <mxCell id="Jskb0aZUGb5_hOKti7_C-1567" value="" style="edgeStyle=none;endArrow=none;strokeWidth=3;strokeColor=#B09500;html=1;fillColor=#e3c800;entryX=0.5;entryY=1;entryDx=0;entryDy=0;exitX=0;exitY=0;exitDx=0;exitDy=0;" edge="1" parent="1" source="1354" target="Jskb0aZUGb5_hOKti7_C-1566">
          <mxGeometry x="480" y="-410.5" width="100" height="100" as="geometry">
            <mxPoint x="2038.556735718571" y="878.5285074124722" as="sourcePoint" />
            <mxPoint x="2105.5449826989616" y="800" as="targetPoint" />
          </mxGeometry>
        </mxCell>
      </root>
    </mxGraphModel>
  </diagram>
</mxfile>
